Patient4_TMGait_0pt7_01_right_26_EMG.mot
version=1
nRows=40
nColumns=33
inDegrees=no
endheader
time	1LAddLong	2LGlutMax	3LGlutMed	4LIliopsoas	5LSemiMemb	6LBicFemLong	7LRecFem	8LVastMed	9LVastLat	10LGasMed	11LTibAnt	12lTibPost	13LPeroneusLong	14LSol	15LExtDigLong	16LFlexDigLong	17RAddLong	18RGlutMax	19RGlutMed	20RIliopsoas	21RSemiMemb	22RBicFemLong	23RRecFem	24RVastMed	25RVastLat	26RGasMed	27RTibAnt	28RTibPost	29RPeroneusLong	30RSol	31RExtDigLong	32RFlexDigLong
29.37	-0.017548	-0.023193	-0.055542	0.002747	0.005188	0.091705	0.12512	-0.015106	-0.028534	0.39963	0.007629	0.12283	-0.33981	-0.056458	-0.11047	0.39291	-0.016174	-0.35004	-0.079193	0.15045	-0.028992	-0.00061	-0.41077	-0.10361	-0.008545	-0.014496	0.1416	-0.005493	-0.23407	0.1326	-0.001831	-0.003052
29.371	-0.015411	-0.014496	-0.022736	0.007935	-0.006561	0.073853	0.099487	-0.001984	0.010223	0.62408	0.000305	-0.23544	-0.25696	0.23178	-0.099945	-1.3493	-0.013123	-0.34714	0.24002	0.023499	-0.01709	0.002594	-0.27969	-0.10086	-0.019531	-0.02121	0.15182	-0.000763	-0.13992	0.13947	-0.002441	-0.007477
29.372	-0.004883	0.066681	0.020599	-0.001526	-0.002747	0.041962	0.067902	0.003204	-0.016479	-0.10925	-0.022888	-0.057526	-0.031586	0.51712	-0.084381	0.95078	-0.007935	-0.36606	0.1738	-0.085907	-0.007935	0.027466	-0.035248	-0.061035	-0.039368	-0.021057	0.1413	-0.00412	-0.012817	0.15076	-0.007935	-0.012817
29.373	-0.003357	0.063019	0.020142	0.001831	0.000153	0.018311	0.013733	0.005951	0.006866	-0.21851	-0.036011	-0.18021	0.11658	0.6839	-0.013275	0.70541	-0.010071	-0.29984	-0.11322	-0.21469	0.000916	0.029755	0.19775	0.003204	-0.015564	-0.0177	0.14603	-0.00946	-0.018616	0.06485	-0.00351	-0.01358
29.374	0.000305	0.075226	0.021057	-0.003967	0.009918	0.068207	-0.005646	0.005646	0.016632	0.089569	-0.025024	-0.009766	0.10284	-0.23743	-0.002594	0.53925	-0.007782	-0.32211	0.072479	-0.39108	-0.001678	0.023346	0.26611	0.005646	-0.01236	-0.012665	0.13687	-0.003357	-0.057373	-0.027618	-0.002441	-0.017853
29.375	-0.010529	0.019073	0.013275	0.014191	-0.00473	0.14755	0.02594	0.003204	0.045319	0.015564	-0.012207	-0.049133	0.092468	-1.9849	-0.020447	0.69565	-0.007172	-0.37155	-0.059509	-0.3566	-0.001068	0.019836	0.36682	-0.005188	-0.021515	-0.011902	0.082092	-0.006256	0.006256	-0.015259	-0.001373	-0.018768
29.376	-0.002747	0.050507	-0.076141	0.000305	-0.012512	0.20386	0.049591	-0.001678	0.04303	-0.003967	0.010071	-0.050812	0.040283	-2.5006	0.009155	-0.022888	-0.012512	-0.354	0.010071	-0.1384	0.003967	0.026245	0.34271	0.018616	-0.015717	-0.016022	0.073242	-0.005493	0.16846	-0.050354	-0.005341	-0.020447
29.377	-0.012054	0.016327	-0.13397	0	-0.016785	0.54794	0.068512	0	0.018005	0.090485	0.050049	-0.10971	0.062866	-1.5172	0.13306	-0.21378	-0.009766	-0.37293	0.068054	0.20676	-0.009003	0.023346	0.23285	0.010223	-0.010376	-0.01236	-0.024567	0.003815	0.33966	-0.06897	-0.002899	-0.014801
29.378	-0.007782	0.005646	-0.11871	0.00885	0.002289	0.63217	0.074005	0.003052	0.015106	0.087738	0.052338	-0.067139	0.011139	-0.36804	0.1532	-0.23193	0.023804	-0.43655	-0.02182	0.53726	-0.001984	0.025482	0.10529	-0.014801	-0.013123	-0.009613	0.11459	-0.00412	-0.027924	-0.066376	-0.00412	-0.010681
29.379	-0.005646	0.007477	0.040283	0.02243	0.004578	0.6076	0.072327	0.002441	0.016479	-0.010071	0.027008	-0.03952	0.034027	0.39276	0.089722	0.13458	0.032196	-0.45517	-0.056458	0.54062	0	0.031433	0.008392	-0.067291	-0.025177	-0.009918	0.26718	-0.002594	0.26032	-0.036926	-0.002899	-0.009003
29.38	-0.010376	-0.022888	0.099487	-0.005798	-0.019073	0.46036	0.077667	0.002441	0.01709	0.019226	-0.010071	-0.03006	0.05249	0.49027	0.028839	-0.11307	0.037079	-0.42954	-0.1593	0.35309	0.00412	0.033264	0.12039	-0.037689	-0.048981	-0.011749	0.18539	-0.00412	-0.075836	-0.058594	-0.000153	-0.00473
29.381	-0.005493	-0.074005	0.091705	0.006561	-0.072937	-0.010223	0.032806	0.000763	0.033569	0.077515	-0.0914	-0.019836	0.075226	0.46493	0.038757	-0.072021	0.014038	-0.40604	-0.20096	0.16754	0.011902	0.038757	0.14923	-0.025177	-0.026398	-0.012512	0.12421	-0.008698	-0.20599	-0.063934	-0.001068	-0.002899
29.382	-0.020905	-0.075836	-0.027161	-0.010529	-0.10101	-0.50308	-0.008392	0.001678	0.055084	0.15686	-0.061798	-0.033722	0.094299	0.29358	0.054016	-0.1384	0.022125	-0.36209	-0.26337	-0.027466	0.002899	0.050964	0.1329	-0.048065	-0.016785	-0.009155	0.11017	-0.00946	-0.33707	-0.058899	-0.005341	-0.00412
29.383	-0.019989	-0.082092	-0.003815	-0.012207	-0.11932	-1.1136	-0.008392	0.00885	0.052795	0.28503	0.000763	-0.033569	0.11154	0.1532	-0.031738	-0.20004	0.04715	-0.35568	0.10757	-0.38483	0.004425	0.031891	0.10727	-0.082245	0.015869	-0.010681	0.063629	-0.007324	-0.26688	-0.032806	-0.002899	-0.010223
29.384	-0.022583	-0.12375	0.006409	-0.001678	-0.015106	-0.80185	0.024719	-0.00061	0.069122	0.47775	-0.037231	-0.041656	0.16144	-0.068817	-0.13168	-0.10712	0.028992	-0.36575	0.53787	-0.47546	0.008392	0.036163	0.068054	-0.10132	0.007019	-0.010223	0.07782	-0.011902	0.027161	-0.007477	-0.005493	-0.006561
29.385	-0.025024	-0.15808	-0.057983	0.013428	0.046997	-0.39795	0.026398	0.001221	0.072784	0.70099	-0.075073	-0.049744	0.022125	-0.11765	-0.086975	-0.047302	0.048981	-0.32852	0.086212	-0.43259	0.004425	0.03952	0.029144	-0.11688	0.011139	-0.001373	0.09552	-0.009308	0.11322	-0.04425	-0.007477	-0.006104
29.386	0	-0.15854	0.045624	0.019989	0.064087	-0.43549	0.043793	-0.001678	0.066986	0.31006	0.041199	0.16037	-0.080109	0.061188	-0.032654	-0.034637	0.077362	-0.327	-0.1593	-0.28427	-0.001678	0.036316	0.013733	-0.097809	0.020752	-0.01297	0.10788	-0.007324	-0.38193	-0.005341	-0.004883	-0.008545
29.387	0.012665	-0.13443	0.049896	0.007935	0.15686	-0.35675	0.02594	-0.000916	0.069275	0.22964	0.069733	0.12604	-0.10407	0.14099	0.007782	-0.06958	0.1474	-0.26093	2.0058	-0.15945	-0.007477	0.028839	-0.032654	-0.10681	0.054016	-0.016479	0.085602	-0.00351	-0.36743	-0.025635	-0.001984	-0.00061
29.388	0.015411	-0.18265	0.002289	0.006104	0.14969	-0.09201	0.005798	-0.004425	0.065613	0.6163	0.042572	0.26016	-0.11826	0.083771	0.047607	-0.13825	0.13062	-0.31158	3.2507	0.039673	-0.015259	0.055084	-0.019073	-0.084076	0.04303	-0.019531	0.06134	-0.006409	-0.083466	-0.031738	-0.004578	-0.012512
29.389	0.009003	-0.22049	0.053711	-0.002899	0.058136	0.071411	-0.014496	-0.000458	0.054626	0.47577	-0.003204	-0.058594	-0.065765	-0.20386	0.083923	-0.063171	0.096436	-0.42954	1.9304	0.25787	-0.023499	0.067902	0.045776	-0.074005	0.045471	-0.024414	0.050201	-0.00473	0.001373	-0.015564	-0.003052	-0.007782
29.39	-0.005798	-0.21591	0.06012	0.019531	-0.056458	0.22018	-0.035706	0.007172	0.088959	-0.16586	0.020905	-0.71213	-0.053101	-0.37033	0.099487	-0.025787	0.058441	-0.47577	0.784	0.20309	-0.032654	0.049896	0.023956	-0.000305	0.043945	-0.023041	0.043945	-0.002136	-0.037384	-0.022888	-0.004272	-0.003815
29.391	-0.003815	-0.20493	-0.00351	0	-0.091248	0.13229	-0.06485	0.010376	0.15228	-0.13321	0.04303	0.043488	-0.044708	-0.11566	0.059662	-0.011749	-0.016327	-0.41794	0.62714	0.085297	-0.020752	0.072021	0.016785	-0.018463	0.004425	-0.018768	-0.010834	-0.002441	-0.028381	-0.042419	-0.001984	-0.00473
29.392	-0.002747	-0.19913	-0.01236	-0.004272	-0.083618	0.11902	-0.068512	0.011749	0.16129	-0.25528	0.045471	-0.037689	-0.002594	0.066986	-0.024719	-0.03067	-0.059967	-0.35416	0.56564	-0.008545	-0.018616	0.063934	0.003357	0.011902	0.023499	-0.018158	-0.053711	-0.00351	-0.02121	-0.006561	0.00351	-0.001678
29.393	0.012207	-0.22751	-0.026398	0.002289	-0.054321	0.121	0.056305	-0.010376	0.080109	-0.34729	0.033722	-0.070496	0.04837	0.51361	-0.062408	-0.078125	-0.077209	-0.29007	0.62775	-0.0177	-0.012054	0.042572	0.030518	0.011292	0.029755	-0.012817	-0.027771	-0.006104	0.018311	-0.001068	-0.003052	0.005341
29.394	0.008392	-0.27786	0.02655	0.010986	0.011292	-0.072021	0.066376	0.029297	-0.053101	-0.63126	0.023956	-0.001984	0.089111	0.12878	-0.06897	0.009003	-0.056763	-0.29007	0.69214	0.00885	-0.012207	0.0354	0.030365	0.03006	0.011139	-0.009918	-0.030518	-0.00473	0.026703	-0.034332	-0.001831	0.015717
29.395	0.018616	-0.31281	0.04837	0.011444	0.02243	-0.10651	0.010071	-0.010376	-0.09491	-0.65292	0.015717	0.24872	0.057678	-0.27847	-0.065613	0.05249	-0.006256	-0.28549	0.7518	0.007477	-0.005493	0.022278	0.067749	0.015564	0.00351	-0.003052	0.10941	-0.003204	-0.031586	-0.03006	0.001831	0.01358
29.396	0.011902	-0.32257	0.062866	0.002899	0.097198	-0.032349	0.12512	-0.019226	-0.103	0.16129	0.013275	0.6015	0.042114	-0.38071	-0.080414	0.032654	0.093689	-0.22247	0.83664	0.007477	-0.003662	0.017853	0.0914	-0.04776	0.00061	0.002899	0.20493	-0.006561	-0.010834	-0.043335	-0.002594	0.020905
29.397	0.014801	-0.26733	0.009766	0.011597	0.064087	-0.054016	0.19684	0.001678	-0.063782	0.2092	0.023651	-0.50888	0.011597	0.088501	-0.033875	-0.009308	0.066528	-0.2095	0.76096	-0.01709	0.002136	-0.007172	0.1355	-0.12466	-0.001068	0.002594	0.14908	-0.004578	-0.010986	-0.036316	-0.002441	0.016937
29.398	0.00473	-0.26535	-0.0354	0.005798	0.014038	-0.13275	0.13977	0.004425	-0.042114	-0.15411	0.022736	-0.25589	-0.063477	0.008545	-0.046692	-0.024567	0.00351	-0.23926	0.53146	0.00061	-0.011749	-0.0177	0.12848	-0.15976	-0.030518	0.008087	0.079498	-0.011444	-0.058441	-0.016479	-0.000305	0.024109
29.399	-0.004272	-0.25497	0.018616	0.001831	0.019989	-0.054016	0.070648	-0.001984	-0.083008	-0.090637	0.023041	0.10712	-0.06485	-0.32135	-0.053101	-0.029755	-0.092926	-0.25269	0.5188	0.1059	-0.010223	-0.010223	0.12955	-0.14114	-0.011444	0.015717	0.04837	-0.005951	-0.06012	-0.031433	-0.003204	0.036926
29.4	0.020294	-0.23636	0.061951	-0.002289	0.081177	-0.1181	0.070496	-0.010986	-0.15808	-0.062866	0.026093	0.14847	-0.03479	-0.068207	-0.023651	0.052643	-0.1535	-0.24674	0.55115	0.15961	-0.020294	-0.009308	0.084839	-0.12573	-0.019226	0.018463	0.057983	-0.004272	-0.06897	-0.016937	0.000458	0.043335
29.401	0.014801	-0.23056	0.014038	0.005341	0.06897	-0.005951	0.11704	-0.014191	-0.12421	-0.29923	0.012817	-0.08194	-0.052948	0.31448	0.022583	0.11627	-0.16907	-0.2449	0.8342	0.1831	-0.020905	0.025787	0.00473	-0.13626	-0.016937	0.028076	0.159	-0.005341	-0.037689	-0.022736	-0.000458	0.055542
29.402	0.010376	-0.23224	0.078583	0.005493	0.016785	0.079041	0.11963	-0.006714	-0.083466	-0.62805	0.016327	-0.20386	-0.078735	0.22095	-0.005493	0.040588	-0.16052	-0.22476	0.77866	0.11261	-0.018158	0.030212	0.084076	-0.11688	-0.023804	0.029449	0.26566	-0.012054	0.0383	-0.02655	-0.00061	0.068512
29.403	0.001373	-0.28488	0.032196	0.014191	-0.033112	0.11688	0.021667	-0.006866	0.021057	-0.68695	0.046692	0.031281	-0.061493	0.1831	-0.013885	0.010223	-0.15579	-0.26001	0.39337	0.11627	-0.012665	0.031433	0.092163	-0.09201	-0.026093	0.021973	0.25543	-0.003204	-0.016785	-0.054626	-0.003052	0.078735
29.404	0.004425	-0.31723	0.053253	0.015259	0.024719	0.049591	0.018768	-0.009155	0.081482	-0.35996	0.067902	0.007019	-0.082703	0.072784	0.027466	0.12787	-0.12131	-0.19424	0.53436	0.15503	-0.001068	0.043945	0.088806	-0.034943	-0.005646	0.031586	0.23651	-0.006409	-0.28717	-0.076294	0	0.11612
29.405	0.00473	-0.33005	-0.052185	0.009308	0.035706	-0.026703	0.011749	-0.00946	0.19058	0.003204	0.1001	0.063629	-0.10269	-0.16785	0.027466	-0.47333	-0.085907	-0.14633	0.53421	0.083008	0.028076	0.066681	0.030365	-0.047607	0.00351	0.03067	0.11993	-0.009155	-0.32669	-0.070038	0	-0.048218
29.406	0.007172	-0.32486	-0.057373	0.002441	0.044098	-0.036469	0.033112	-0.015106	0.2652	0.22217	0.003967	0.092468	-0.06424	-0.055847	0.011902	0.14618	-0.054932	-0.1149	0.74173	0.044403	0.044861	0.085449	-0.13031	-0.037079	0.002594	0.032501	-0.29343	-0.004883	0.15717	-0.077362	0.002594	-0.097961
29.407	0.005493	-0.32532	-0.08606	0.011444	0.035553	0.006714	0.028839	-0.008545	0.25986	0.081024	-0.12161	-0.24338	-0.021362	0.23086	0.057678	0.16708	-0.039368	-0.092621	1.0863	-0.037231	0.029602	0.083008	-0.16693	-0.036926	-0.00885	0.025024	-0.36316	-0.003052	0.37262	-0.059204	-0.000763	-0.091705
29.408	0.01236	-0.2829	-0.062103	0.0177	0.027466	0.028992	0.049133	-0.003815	0.21912	-0.18967	-0.15533	-0.039063	0.025024	0.53925	0.012665	0.015869	-0.0354	-0.1622	0.69961	-0.11353	0.027924	0.089722	-0.092773	-0.079956	0.009918	0.02594	-0.28473	-0.006561	0.083923	-0.059357	0.001373	-0.093384
29.409	0.006561	-0.26962	-0.009003	0.024719	-0.00061	0.08728	0.057526	-0.002899	0.20462	-0.03479	-0.11322	-0.1358	0.048981	0.75501	-0.052795	-0.08728	-0.029144	-0.2272	0.28076	-0.16876	0.020447	0.078125	-0.054169	-0.03006	0.033112	0.023041	-0.1648	-0.002747	0.005035	-0.040741	-0.001678	-0.083313
